<?xml version="1.0" encoding="UTF-8" standalone="no"?><!DOCTYPE svg PUBLIC "-//W3C//DTD SVG 1.1//EN" "http://www.w3.org/Graphics/SVG/1.1/DTD/svg11.dtd"><svg width="100%" height="100%" viewBox="0 0 708 200" version="1.1" xmlns="http://www.w3.org/2000/svg" xmlns:xlink="http://www.w3.org/1999/xlink" xml:space="preserve" xmlns:serif="http://www.serif.com/" style="fill-rule:evenodd;clip-rule:evenodd;stroke-linejoin:round;stroke-miterlimit:2;"><g><path d="M21.635,108.035l13.5,-1.313c0.813,4.531 2.461,7.86 4.946,9.985c2.484,2.125 5.836,3.187 10.054,3.187c4.469,0 7.836,-0.945 10.102,-2.836c2.266,-1.89 3.398,-4.101 3.398,-6.633c0,-1.625 -0.476,-3.007 -1.429,-4.148c-0.953,-1.141 -2.618,-2.133 -4.993,-2.977c-1.625,-0.562 -5.328,-1.562 -11.109,-3c-7.437,-1.843 -12.656,-4.109 -15.656,-6.797c-4.219,-3.781 -6.328,-8.39 -6.328,-13.828c-0,-3.5 0.992,-6.773 2.976,-9.82c1.985,-3.047 4.844,-5.367 8.578,-6.961c3.735,-1.594 8.243,-2.391 13.524,-2.391c8.625,0 15.117,1.891 19.476,5.672c4.36,3.782 6.649,8.828 6.868,15.141l-13.875,0.609c-0.594,-3.531 -1.868,-6.07 -3.821,-7.617c-1.953,-1.547 -4.883,-2.32 -8.789,-2.32c-4.031,-0 -7.187,0.828 -9.469,2.484c-1.468,1.063 -2.203,2.485 -2.203,4.266c0,1.625 0.688,3.015 2.063,4.172c1.75,1.468 6,3 12.75,4.593c6.75,1.594 11.742,3.243 14.976,4.946c3.235,1.703 5.766,4.031 7.594,6.984c1.828,2.953 2.742,6.602 2.742,10.945c0,3.938 -1.093,7.625 -3.281,11.063c-2.187,3.437 -5.281,5.992 -9.281,7.664c-4,1.672 -8.985,2.508 -14.953,2.508c-8.688,-0 -15.36,-2.008 -20.016,-6.024c-4.656,-4.015 -7.437,-9.867 -8.344,-17.554Z" style="fill-rule:nonzero;"/><path d="M104.651,130.394l-0,-57.094l-20.391,0l0,-11.625l54.61,0l-0,11.625l-20.344,0l-0,57.094l-13.875,0Z" style="fill-rule:nonzero;"/><path d="M202.667,130.394l-15.094,0l-6,-15.609l-27.469,-0l-5.672,15.609l-14.719,0l26.766,-68.719l14.672,0l27.516,68.719Zm-25.547,-27.187l-9.469,-25.5l-9.281,25.5l18.75,-0Z" style="fill-rule:nonzero;"/><path d="M210.073,130.394l-0,-68.719l29.203,0c7.344,0 12.68,0.618 16.008,1.852c3.328,1.234 5.992,3.43 7.992,6.586c2,3.156 3,6.765 3,10.828c-0,5.156 -1.516,9.414 -4.547,12.773c-3.031,3.36 -7.562,5.477 -13.594,6.352c3,1.75 5.477,3.672 7.43,5.766c1.953,2.093 4.586,5.812 7.898,11.156l8.391,13.406l-16.594,0l-10.031,-14.953c-3.562,-5.344 -6,-8.711 -7.312,-10.102c-1.313,-1.39 -2.704,-2.343 -4.172,-2.859c-1.469,-0.516 -3.797,-0.773 -6.985,-0.773l-2.812,-0l-0,28.687l-13.875,0Zm13.875,-39.656l10.265,-0c6.657,-0 10.813,-0.281 12.469,-0.844c1.656,-0.562 2.953,-1.531 3.891,-2.906c0.937,-1.375 1.406,-3.094 1.406,-5.156c0,-2.313 -0.617,-4.18 -1.851,-5.602c-1.235,-1.422 -2.977,-2.32 -5.227,-2.695c-1.125,-0.157 -4.5,-0.235 -10.125,-0.235l-10.828,0l-0,17.438Z" style="fill-rule:nonzero;"/><path d="M294.823,130.394l-0,-57.094l-20.391,0l0,-11.625l54.61,0l-0,11.625l-20.344,0l-0,57.094l-13.875,0Z" style="fill-rule:nonzero;"/><path d="M337.995,130.394l-0,-68.719l50.953,0l-0,11.625l-37.078,0l-0,15.235l34.5,-0l-0,11.578l-34.5,-0l-0,18.703l38.39,-0l0,11.578l-52.265,0Z" style="fill-rule:nonzero;"/><path d="M402.073,130.394l-0,-68.719l29.203,0c7.344,0 12.68,0.618 16.008,1.852c3.328,1.234 5.992,3.43 7.992,6.586c2,3.156 3,6.765 3,10.828c-0,5.156 -1.516,9.414 -4.547,12.773c-3.031,3.36 -7.562,5.477 -13.594,6.352c3,1.75 5.477,3.672 7.43,5.766c1.953,2.093 4.586,5.812 7.898,11.156l8.391,13.406l-16.594,0l-10.031,-14.953c-3.562,-5.344 -6,-8.711 -7.312,-10.102c-1.313,-1.39 -2.704,-2.343 -4.172,-2.859c-1.469,-0.516 -3.797,-0.773 -6.985,-0.773l-2.812,-0l-0,28.687l-13.875,0Zm13.875,-39.656l10.265,-0c6.657,-0 10.813,-0.281 12.469,-0.844c1.656,-0.562 2.953,-1.531 3.891,-2.906c0.937,-1.375 1.406,-3.094 1.406,-5.156c0,-2.313 -0.617,-4.18 -1.851,-5.602c-1.235,-1.422 -2.977,-2.32 -5.227,-2.695c-1.125,-0.157 -4.5,-0.235 -10.125,-0.235l-10.828,0l-0,17.438Z" style="fill-rule:nonzero;"/><path d="M556.432,130.394l-15.094,0l-6,-15.609l-27.468,-0l-5.672,15.609l-14.719,0l26.766,-68.719l14.672,0l27.515,68.719Zm-25.547,-27.187l-9.468,-25.5l-9.282,25.5l18.75,-0Z" style="fill-rule:nonzero;"/><path d="M563.792,130.394l-0,-68.719l22.265,0c8.438,0 13.938,0.344 16.5,1.032c3.938,1.031 7.235,3.273 9.891,6.726c2.656,3.453 3.984,7.914 3.984,13.383c0,4.219 -0.765,7.766 -2.297,10.641c-1.531,2.875 -3.476,5.132 -5.836,6.773c-2.359,1.641 -4.757,2.727 -7.195,3.258c-3.312,0.656 -8.109,0.984 -14.391,0.984l-9.046,0l-0,25.922l-13.875,0Zm13.875,-57.094l-0,19.5l7.593,0c5.469,0 9.125,-0.359 10.969,-1.078c1.844,-0.719 3.289,-1.844 4.336,-3.375c1.047,-1.531 1.57,-3.312 1.57,-5.344c0,-2.5 -0.734,-4.562 -2.203,-6.187c-1.469,-1.625 -3.328,-2.641 -5.578,-3.047c-1.656,-0.312 -4.984,-0.469 -9.984,-0.469l-6.703,0Z" style="fill-rule:nonzero;"/><path d="M627.823,130.394l-0,-68.719l22.265,0c8.438,0 13.938,0.344 16.5,1.032c3.938,1.031 7.235,3.273 9.891,6.726c2.656,3.453 3.984,7.914 3.984,13.383c0,4.219 -0.765,7.766 -2.296,10.641c-1.532,2.875 -3.477,5.132 -5.836,6.773c-2.36,1.641 -4.758,2.727 -7.196,3.258c-3.312,0.656 -8.109,0.984 -14.39,0.984l-9.047,0l-0,25.922l-13.875,0Zm13.875,-57.094l-0,19.5l7.594,0c5.468,0 9.125,-0.359 10.968,-1.078c1.844,-0.719 3.289,-1.844 4.336,-3.375c1.047,-1.531 1.571,-3.312 1.571,-5.344c-0,-2.5 -0.735,-4.562 -2.204,-6.187c-1.468,-1.625 -3.328,-2.641 -5.578,-3.047c-1.656,-0.312 -4.984,-0.469 -9.984,-0.469l-6.703,0Z" style="fill-rule:nonzero;"/></g></svg>